<?xml version="1.0" encoding="UTF-8"?><!DOCTYPE svg PUBLIC "-//W3C//DTD SVG 1.1//EN" "http://www.w3.org/Graphics/SVG/1.1/DTD/svg11.dtd"><svg version="1.1" width="128" height="128" viewBox="0 0 512 512" xmlns="http://www.w3.org/2000/svg"><path d="m507.53 208.18c-0.908-4.782-5.088-8.242-9.955-8.242h-236.17c-5.596 0-10.132 4.536-10.132 10.132v97.266c0 5.596 4.536 10.132 10.132 10.132h115.97c-11.752 23.149-30.065 42.7-52.671 55.958-20.729 12.168-44.485 18.599-68.7 18.599-56.417 0-107.62-35.479-127.4-88.296-5.72-15.213-8.62-31.271-8.62-47.729 0-15.134 2.471-30.009 7.34-44.206 18.871-54.919 70.586-91.818 128.68-91.818 25.528 0 50.398 7.11 71.916 20.561 3.684 2.303 8.427 2.001 11.788-0.752l79.65-65.209c2.341-1.917 3.703-4.78 3.714-7.804 0.011-3.026-1.332-5.897-3.66-7.83-45.777-38.008-103.81-58.941-163.41-58.941-141.16 0-256 114.84-256 256 0 42.345 10.552 84.299 30.516 121.33 44.791 83.07 131.19 134.67 225.48 134.67 59.004 0 116.59-20.556 162.14-57.879 44.922-36.807 76.269-88.19 88.261-144.68 3.715-17.449 5.6-35.431 5.6-53.445 0-16.093-1.505-32.182-4.473-47.82zm-251.53-187.92c50.746 0 100.26 16.477 140.75 46.628l-64.4 52.724c-23.24-13.043-49.482-19.904-76.353-19.904-61.934 0-117.53 36.511-142.56 92.184l-62.849-51.454c40.483-71.675 117.38-120.18 205.4-120.18zm-235.74 235.74c0-34.585 7.488-67.453 20.924-97.071l64.819 53.067c-4.173 14.251-6.295 29.018-6.295 44.004 0 16.43 2.525 32.523 7.502 47.94l-64.412 52.727c-14.761-31.277-22.538-65.819-22.538-100.67zm235.74 235.74c-84.05 0-161.29-44.532-203.56-116.77l62.675-51.305c11.504 23.986 28.887 44.597 50.889 60.122 26.427 18.647 57.549 28.504 90 28.504 25.424 0 50.411-6.197 72.719-17.94l64.854 53.093c-39.883 28.655-88.184 44.294-137.57 44.294zm230.58-186.51c-10.63 50.067-37.787 95.775-76.714 129.36l-62.917-51.508c25.118-18.016 44.552-43.208 55.414-72.195 1.166-3.111 0.732-6.597-1.16-9.327-1.893-2.73-5.005-4.359-8.327-4.359h-121.34v-77.003h217.49c1.798 11.78 2.707 23.786 2.707 35.799 0 16.6-1.734 33.162-5.155 49.231z"/></svg>
